<?xml version="1.0" encoding="UTF-8" standalone="no"?>
<svg
   xmlns:dc="http://purl.org/dc/elements/1.1/"
   xmlns:cc="http://creativecommons.org/ns#"
   xmlns:rdf="http://www.w3.org/1999/02/22-rdf-syntax-ns#"
   xmlns:svg="http://www.w3.org/2000/svg"
   xmlns="http://www.w3.org/2000/svg"
   xmlns:sodipodi="http://sodipodi.sourceforge.net/DTD/sodipodi-0.dtd"
   xmlns:inkscape="http://www.inkscape.org/namespaces/inkscape"
   version="1.1"
   id="svg2"
   xml:space="preserve"
   width="675.03467"
   height="761.18665"
   viewBox="0 0 675.03467 761.18665"
   sodipodi:docname="funnel_geo.svg"
   inkscape:version="1.0.1 (3bc2e813f5, 2020-09-07)"><metadata
     id="metadata8"><rdf:RDF><cc:Work
         rdf:about=""><dc:format>image/svg+xml</dc:format><dc:type
           rdf:resource="http://purl.org/dc/dcmitype/StillImage" /></cc:Work></rdf:RDF></metadata><defs
     id="defs6"><rect
       x="106.71528"
       y="448.87193"
       width="5.7945341"
       height="48.948773"
       id="rect1416" /><rect
       x="105.92976"
       y="450.41428"
       width="23.139835"
       height="279.11472"
       id="rect1410" /><clipPath
       clipPathUnits="userSpaceOnUse"
       id="clipPath18"><path
         d="M 0,570.89 H 506.276 V 0 H 0 Z"
         id="path16" /></clipPath><clipPath
       clipPathUnits="userSpaceOnUse"
       id="clipPath26"><path
         d="M 2.5,106.21 H 237.03 V 2.28 H 2.5 Z"
         id="path24" /></clipPath><clipPath
       clipPathUnits="userSpaceOnUse"
       id="clipPath42"><path
         d="M 2.5,172.12 H 231.95 V 72.89 H 2.5 Z"
         id="path40" /></clipPath><clipPath
       clipPathUnits="userSpaceOnUse"
       id="clipPath58"><path
         d="M 2.5,236.81 H 209.55 V 143.82 H 2.5 Z"
         id="path56" /></clipPath><clipPath
       clipPathUnits="userSpaceOnUse"
       id="clipPath74"><path
         d="M 2.5,302.25 H 187.55 V 214.59 H 2.5 Z"
         id="path72" /></clipPath><clipPath
       clipPathUnits="userSpaceOnUse"
       id="clipPath90"><path
         d="M 2.5,366.7 H 165.31 V 285.22 H 2.5 Z"
         id="path88" /></clipPath><clipPath
       clipPathUnits="userSpaceOnUse"
       id="clipPath106"><path
         d="M 2.5,432.33 H 143.4 V 356.12 H 2.5 Z"
         id="path104" /></clipPath><clipPath
       clipPathUnits="userSpaceOnUse"
       id="clipPath122"><path
         d="M 2.5,497.39 H 121.08 V 427.22 H 2.5 Z"
         id="path120" /></clipPath><clipPath
       clipPathUnits="userSpaceOnUse"
       id="clipPath138"><path
         d="M 2.5,568.43 H 98.97 V 497.39 H 2.5 Z"
         id="path136" /></clipPath><clipPath
       clipPathUnits="userSpaceOnUse"
       id="clipPath202"><path
         d="M 0,570.89 H 506.276 V 0 H 0 Z"
         id="path200" /></clipPath><clipPath
       clipPathUnits="userSpaceOnUse"
       id="clipPath222"><path
         d="M 0,570.89 H 506.276 V 0 H 0 Z"
         id="path220" /></clipPath><clipPath
       clipPathUnits="userSpaceOnUse"
       id="clipPath242"><path
         d="M 0,570.89 H 506.276 V 0 H 0 Z"
         id="path240" /></clipPath><clipPath
       clipPathUnits="userSpaceOnUse"
       id="clipPath258"><path
         d="M 0,570.89 H 506.276 V 0 H 0 Z"
         id="path256" /></clipPath><clipPath
       clipPathUnits="userSpaceOnUse"
       id="clipPath278"><path
         d="M 0,570.89 H 506.276 V 0 H 0 Z"
         id="path276" /></clipPath><clipPath
       clipPathUnits="userSpaceOnUse"
       id="clipPath298"><path
         d="M 0,570.89 H 506.276 V 0 H 0 Z"
         id="path296" /></clipPath><clipPath
       clipPathUnits="userSpaceOnUse"
       id="clipPath456"><path
         d="M 0,570.89 H 506.276 V 0 H 0 Z"
         id="path454" /></clipPath></defs><sodipodi:namedview
     pagecolor="#ffffff"
     bordercolor="#666666"
     borderopacity="1"
     objecttolerance="10"
     gridtolerance="10"
     guidetolerance="10"
     inkscape:pageopacity="0"
     inkscape:pageshadow="2"
     inkscape:window-width="2560"
     inkscape:window-height="1403"
     id="namedview4"
     showgrid="false"
     inkscape:zoom="1.3242481"
     inkscape:cx="190.64154"
     inkscape:cy="380.59332"
     inkscape:window-x="2560"
     inkscape:window-y="18"
     inkscape:window-maximized="0"
     inkscape:current-layer="g10" /><g
     id="g10"
     inkscape:groupmode="layer"
     inkscape:label="funnel"
     transform="matrix(1.3333333,0,0,-1.3333333,0,761.18667)"><g
       id="g12"><g
         id="g14"
         clip-path="url(#clipPath18)"><g
           id="g20"><g
             id="g22" /><g
             id="g34"><g
               clip-path="url(#clipPath26)"
               opacity="0.179993"
               id="g32"><g
                 transform="translate(237.0303,91.2601)"
                 id="g30"><path
                   d="m 0,0 v -88.98 h -234.53 v 0.11 70.66 h 0.49 l 196.269,-0.16 4.041,4.62 L -20.01,0 -5.08,14.95 Z"
                   style="fill:#7b7979;fill-opacity:1;fill-rule:nonzero;stroke:none"
                   id="path28" /></g></g></g></g><g
           id="g36"><g
             id="g38" /><g
             id="g50"><g
               clip-path="url(#clipPath42)"
               opacity="0.179993"
               id="g48"><g
                 transform="translate(209.5498,172.1205)"
                 id="g46"><path
                   d="M 0,0 22.4,-65.91 7.47,-80.86 -6.25,-94.61 l -4.04,-4.62 -196.27,0.16 h -0.49 v 18.21 52.559 h 177.19 l 2.71,2 L -0.85,0 Z"
                   style="fill:#a98734;fill-opacity:1;fill-rule:nonzero;stroke:none"
                   id="path44" /></g></g></g></g><g
           id="g52"><g
             id="g54" /><g
             id="g66"><g
               clip-path="url(#clipPath58)"
               opacity="0.179993"
               id="g64"><g
                 transform="translate(186.9199,236.8099)"
                 id="g62"><path
                   d="m 0,0 h 0.63 l 22,-64.689 h -0.85 l -26.3,-26.301 -2.71,-2 h -177.19 v 70.77 h 161.17 l 2.19,1.8 20.15,20.15 z"
                   style="fill:#e2ad11;fill-opacity:1;fill-rule:nonzero;stroke:none"
                   id="path60" /></g></g></g></g><g
           id="g68"><g
             id="g70" /><g
             id="g82"><g
               clip-path="url(#clipPath74)"
               opacity="0.179993"
               id="g80"><g
                 transform="translate(165.3101,302.2499)"
                 id="g78"><path
                   d="m 0,0 22.24,-65.44 h -0.63 l -0.91,-0.27 -20.15,-20.15 -2.19,-1.8 h -161.17 v 70.63 l 146.33,0.13 2.31,2.73 z"
                   style="fill:#69b530;fill-opacity:1;fill-rule:nonzero;stroke:none"
                   id="path76" /></g></g></g></g><g
           id="g84"><g
             id="g86" /><g
             id="g98"><g
               clip-path="url(#clipPath90)"
               opacity="0.179993"
               id="g96"><g
                 transform="translate(143.3999,366.7001)"
                 id="g94"><path
                   d="M 0,0 21.91,-64.45 7.74,-78.62 5.43,-81.35 -140.9,-81.48 v 70.9 h 129.83 l 1.42,0.94 z"
                   style="fill:#e52997;fill-opacity:1;fill-rule:nonzero;stroke:none"
                   id="path92" /></g></g></g></g><g
           id="g100"><g
             id="g102" /><g
             id="g114"><g
               clip-path="url(#clipPath106)"
               opacity="0.179993"
               id="g112"><g
                 transform="translate(121.0801,432.33)"
                 id="g110"><path
                   d="m 0,0 22.32,-65.63 -9.65,-9.64 -1.42,-0.94 h -129.83 v 71.1 h 0.5 111.93 l 1.39,0.35 z"
                   style="fill:#7a80c8;fill-opacity:1;fill-rule:nonzero;stroke:none"
                   id="path108" /></g></g></g></g><g
           id="g116"><g
             id="g118" /><g
             id="g130"><g
               clip-path="url(#clipPath122)"
               opacity="0.179993"
               id="g128"><g
                 transform="translate(98.9702,497.39)"
                 id="g126"><path
                   d="m 0,0 22.11,-65.06 -4.76,-4.76 -1.39,-0.35 h -111.93 -0.5 V 0 h 0.5 z"
                   style="fill:#d46f1c;fill-opacity:1;fill-rule:nonzero;stroke:none"
                   id="path124" /></g></g></g></g><g
           id="g132"><g
             id="g134" /><g
             id="g146"><g
               clip-path="url(#clipPath138)"
               opacity="0.179993"
               id="g144"><g
                 transform="translate(75,567.89)"
                 id="g142"><path
                   d="M 0,0 23.97,-70.5 H -72 -72.5 v 71 0.04 H 0 Z"
                   style="fill:#1ab194;fill-opacity:1;fill-rule:nonzero;stroke:none"
                   id="path140" /></g></g></g></g></g></g><g
       id="g148"
       transform="translate(501.5996,568.4301)"><path
         d="m 0,0 -23.989,-71.04 h -378.64 L -426.6,-0.54 V 0 Z"
         style="fill:#1ab194;fill-opacity:1;fill-rule:nonzero;stroke:none"
         id="path150" /></g><g
       id="g152"
       transform="translate(121.2998,432.5502)"><path
         d="M 0,0 -0.22,-0.22 -22.33,64.84 H 356.311 L 334.42,0 Z"
         style="fill:#d46f1c;fill-opacity:1;fill-rule:nonzero;stroke:none"
         id="path154" /></g><g
       id="g156"
       transform="translate(144.1299,367.4398)"><path
         d="m 0,0 -0.73,-0.74 -22.32,65.63 0.22,0.22 H 311.59 L 289.601,0 Z"
         style="fill:#7a80c8;fill-opacity:1;fill-rule:nonzero;stroke:none"
         id="path158" /></g><g
       id="g160"
       transform="translate(165.3901,302.33)"><path
         d="m 0,0 -0.08,-0.08 -21.91,64.45 0.73,0.74 h 289.6 L 246.28,-0.21 245.669,0 Z"
         style="fill:#e52997;fill-opacity:1;fill-rule:nonzero;stroke:none"
         id="path162" /></g><g
       id="g164"
       transform="translate(411.6699,302.12)"><path
         d="m 0,0 -22.03,-65.23 -202.09,-0.08 -22.24,65.44 0.08,0.08 H -0.61 Z"
         style="fill:#69b530;fill-opacity:1;fill-rule:nonzero;stroke:none"
         id="path166" /></g><g
       id="g168"
       transform="translate(389.6396,236.89)"><path
         d="m 0,0 -21.87,-64.77 h -158.22 l -22,64.69 z"
         style="fill:#e2ad11;fill-opacity:1;fill-rule:nonzero;stroke:none"
         id="path170" /></g><g
       id="g172"
       transform="translate(232.75,107.0101)"><path
         d="M 0,0 -0.8,-0.8 -23.2,65.11 H 135.02 L 113.03,0 Z"
         style="fill:#a98734;fill-opacity:1;fill-rule:nonzero;stroke:none"
         id="path174" /></g><g
       id="g176"
       transform="translate(345.7803,107.0101)"><path
         d="m 0,0 -5.32,-15.75 -0.26,-0.79 v -88.19 h -103.17 v 88.98 l -5.08,14.95 0.8,0.8 z"
         style="fill:#7b7979;fill-opacity:1;fill-rule:nonzero;stroke:none"
         id="path178" /></g><g
       id="g180"
       transform="translate(2.3999,2.2796)"><path
         d="M 0,0 H 0.1 234.63"
         style="fill:none;stroke:#231f20;stroke-width:1;stroke-linecap:round;stroke-linejoin:round;stroke-miterlimit:4;stroke-dasharray:none;stroke-opacity:1"
         id="path182" /></g><g
       id="g184"
       transform="translate(237.0303,2.2796)"><path
         d="M 0,0 H 103.17"
         style="fill:none;stroke:#231f20;stroke-width:1;stroke-linecap:round;stroke-linejoin:round;stroke-miterlimit:4;stroke-dasharray:none;stroke-opacity:1"
         id="path186" /></g><g
       id="g188"
       transform="translate(501.5996,568.4301)"><path
         d="m 0,0 h -425.373 -72.291 -1.436"
         style="fill:none;stroke:#231f20;stroke-width:1;stroke-linecap:round;stroke-linejoin:round;stroke-miterlimit:4;stroke-dasharray:none;stroke-opacity:1"
         id="path190" /></g><g
       id="g192"
       transform="translate(98.9702,497.39)"><path
         d="M 0,0 H 378.64"
         style="fill:none;stroke:#ffffff;stroke-width:3;stroke-linecap:round;stroke-linejoin:round;stroke-miterlimit:4;stroke-dasharray:none;stroke-opacity:1"
         id="path194" /></g><g
       id="g196"><g
         id="g198"
         clip-path="url(#clipPath202)"><g
           id="g204"
           transform="translate(98.9702,497.39)"><path
             d="M 0,0 H -95.97"
             style="fill:none;stroke:#ffffff;stroke-width:3;stroke-linecap:round;stroke-linejoin:round;stroke-miterlimit:4;stroke-dasharray:none;stroke-opacity:1"
             id="path206" /></g></g></g><g
       id="g208"
       transform="translate(433.9004,367.4398)"><path
         d="M 0,0 H -0.17"
         style="fill:none;stroke:#231f20;stroke-width:1;stroke-linecap:round;stroke-linejoin:round;stroke-miterlimit:4;stroke-dasharray:none;stroke-opacity:1"
         id="path210" /></g><g
       id="g212"
       transform="translate(2.4102,356.12)"><path
         d="M 0,0 H 0.09"
         style="fill:none;stroke:#231f20;stroke-width:1;stroke-linecap:round;stroke-linejoin:round;stroke-miterlimit:4;stroke-dasharray:none;stroke-opacity:1"
         id="path214" /></g><g
       id="g216"><g
         id="g218"
         clip-path="url(#clipPath222)"><g
           id="g224"
           transform="translate(2.5,356.12)"><path
             d="m 0,0 h 129.83 l 1.42,0.94 9.65,9.64"
             style="fill:none;stroke:#ffffff;stroke-width:3;stroke-linecap:round;stroke-linejoin:round;stroke-miterlimit:4;stroke-dasharray:none;stroke-opacity:1"
             id="path226" /></g></g></g><g
       id="g228"
       transform="translate(433.7305,367.4398)"><path
         d="m 0,0 h -289.601 l -0.73,-0.74"
         style="fill:none;stroke:#ffffff;stroke-width:3;stroke-linecap:round;stroke-linejoin:round;stroke-miterlimit:4;stroke-dasharray:none;stroke-opacity:1"
         id="path230" /></g><g
       id="g232"
       transform="translate(165.3101,302.2499)"><path
         d="M 0,0 0.08,0.08 H 245.75"
         style="fill:none;stroke:#ffffff;stroke-width:3;stroke-linecap:round;stroke-linejoin:round;stroke-miterlimit:4;stroke-dasharray:none;stroke-opacity:1"
         id="path234" /></g><g
       id="g236"><g
         id="g238"
         clip-path="url(#clipPath242)"><g
           id="g244"
           transform="translate(2.5,285.2201)"><path
             d="m 0,0 146.33,0.13 2.31,2.73 14.17,14.17"
             style="fill:none;stroke:#ffffff;stroke-width:3;stroke-linecap:round;stroke-linejoin:round;stroke-miterlimit:4;stroke-dasharray:none;stroke-opacity:1"
             id="path246" /></g></g></g><g
       id="g248"
       transform="translate(455.9404,432.5502)"><path
         d="M 0,0 H -0.221"
         style="fill:none;stroke:#231f20;stroke-width:1;stroke-linecap:round;stroke-linejoin:round;stroke-miterlimit:4;stroke-dasharray:none;stroke-opacity:1"
         id="path250" /></g><g
       id="g252"><g
         id="g254"
         clip-path="url(#clipPath258)"><g
           id="g260"
           transform="translate(121.0801,432.33)"><path
             d="M 0,0 -4.76,-4.76 -6.15,-5.11 H -118.08"
             style="fill:none;stroke:#ffffff;stroke-width:3;stroke-linecap:round;stroke-linejoin:round;stroke-miterlimit:4;stroke-dasharray:none;stroke-opacity:1"
             id="path262" /></g></g></g><g
       id="g264"
       transform="translate(121.0801,432.33)"><path
         d="M 0,0 0.22,0.22 H 334.64"
         style="fill:none;stroke:#ffffff;stroke-width:3;stroke-linecap:round;stroke-linejoin:round;stroke-miterlimit:4;stroke-dasharray:none;stroke-opacity:1"
         id="path266" /></g><g
       id="g268"
       transform="translate(367.7695,172.1205)"><path
         d="M 0,0 H -158.22"
         style="fill:none;stroke:#ffffff;stroke-width:3;stroke-linecap:round;stroke-linejoin:round;stroke-miterlimit:4;stroke-dasharray:none;stroke-opacity:1"
         id="path270" /></g><g
       id="g272"><g
         id="g274"
         clip-path="url(#clipPath278)"><g
           id="g280"
           transform="translate(2.9902,73.0502)"><path
             d="m 0,0 196.27,-0.16 4.04,4.62 13.72,13.75 14.93,14.95"
             style="fill:none;stroke:#ffffff;stroke-width:3;stroke-linecap:round;stroke-linejoin:round;stroke-miterlimit:4;stroke-dasharray:none;stroke-opacity:1"
             id="path282" /></g></g></g><g
       id="g284"
       transform="translate(345.7803,107.0101)"><path
         d="m 0,0 h -113.03 l -0.8,-0.8"
         style="fill:none;stroke:#ffffff;stroke-width:3;stroke-linecap:round;stroke-linejoin:round;stroke-miterlimit:4;stroke-dasharray:none;stroke-opacity:1"
         id="path286" /></g><g
       id="g288"
       transform="translate(2.3999,214.5902)"><path
         d="M 0,0 H 0.1"
         style="fill:none;stroke:#231f20;stroke-width:1;stroke-linecap:round;stroke-linejoin:round;stroke-miterlimit:4;stroke-dasharray:none;stroke-opacity:1"
         id="path290" /></g><g
       id="g292"><g
         id="g294"
         clip-path="url(#clipPath298)"><g
           id="g300"
           transform="translate(187.5498,236.8099)"><path
             d="m 0,0 h -0.63 l -0.91,-0.27 -20.15,-20.15 -2.19,-1.8 h -161.17"
             style="fill:none;stroke:#ffffff;stroke-width:3;stroke-linecap:round;stroke-linejoin:round;stroke-miterlimit:4;stroke-dasharray:none;stroke-opacity:1"
             id="path302" /></g></g></g><g
       id="g304"
       transform="translate(187.5498,236.8099)"><path
         d="M 0,0 202.09,0.08"
         style="fill:none;stroke:#ffffff;stroke-width:3;stroke-linecap:round;stroke-linejoin:round;stroke-miterlimit:4;stroke-dasharray:none;stroke-opacity:1"
         id="path306" /></g><g
       id="g308"
       transform="translate(389.75,236.89)"><path
         d="M 0,0 H -0.11"
         style="fill:none;stroke:#231f20;stroke-width:1;stroke-linecap:round;stroke-linejoin:round;stroke-miterlimit:4;stroke-dasharray:none;stroke-opacity:1"
         id="path310" /></g><g
       id="g312"
       transform="translate(367.7695,172.1205)"><path
         d="M 0,0 -21.989,-65.11"
         style="fill:none;stroke:#231f20;stroke-width:1;stroke-linecap:round;stroke-linejoin:round;stroke-miterlimit:4;stroke-dasharray:none;stroke-opacity:1"
         id="path314" /></g><g
       id="g316"
       transform="translate(433.7305,367.4398)"><path
         d="M 0,0 21.989,65.11"
         style="fill:none;stroke:#231f20;stroke-width:1;stroke-linecap:round;stroke-linejoin:round;stroke-miterlimit:4;stroke-dasharray:none;stroke-opacity:1"
         id="path318" /></g><g
       id="g320"
       transform="translate(345.7803,107.0101)"><path
         d="M 0,0 -5.32,-15.75"
         style="fill:none;stroke:#231f20;stroke-width:1;stroke-linecap:round;stroke-linejoin:round;stroke-miterlimit:4;stroke-dasharray:none;stroke-opacity:1"
         id="path322" /></g><g
       id="g324"
       transform="translate(340.46,91.2601)"><path
         d="M 0,0 -0.26,-0.79 V -88.98"
         style="fill:none;stroke:#231f20;stroke-width:1;stroke-linecap:round;stroke-linejoin:round;stroke-miterlimit:4;stroke-dasharray:none;stroke-opacity:1"
         id="path326" /></g><g
       id="g328"
       transform="translate(367.7695,172.1205)"><path
         d="M 0,0 21.87,64.77"
         style="fill:none;stroke:#231f20;stroke-width:1;stroke-linecap:round;stroke-linejoin:round;stroke-miterlimit:4;stroke-dasharray:none;stroke-opacity:1"
         id="path330" /></g><g
       id="g332"
       transform="translate(389.6396,236.89)"><path
         d="m 0,0 22.03,65.23 22.061,65.32"
         style="fill:none;stroke:#231f20;stroke-width:1;stroke-linecap:round;stroke-linejoin:round;stroke-miterlimit:4;stroke-dasharray:none;stroke-opacity:1"
         id="path334" /></g><g
       id="g336"
       transform="translate(501.5996,568.4301)"><path
         d="M 0,0 -23.989,-71.04"
         style="fill:none;stroke:#231f20;stroke-width:1;stroke-linecap:round;stroke-linejoin:round;stroke-miterlimit:4;stroke-dasharray:none;stroke-opacity:1"
         id="path338" /></g><g
       id="g340"
       transform="translate(455.7197,432.5502)"><path
         d="M 0,0 21.891,64.84"
         style="fill:none;stroke:#231f20;stroke-width:1;stroke-linecap:round;stroke-linejoin:round;stroke-miterlimit:4;stroke-dasharray:none;stroke-opacity:1"
         id="path342" /></g><g
       id="g344"
       transform="translate(2.5,2.2796)"><path
         d="M 0,0 V 566.194"
         style="fill:none;stroke:#231f20;stroke-width:1;stroke-linecap:round;stroke-linejoin:round;stroke-miterlimit:4;stroke-dasharray:none;stroke-opacity:1"
         id="path346" /></g><text
       transform="matrix(1,0,0,-1,8.2666,41.5908)"
       style="font-variant:normal;font-weight:bold;font-stretch:normal;font-size:21px;font-family:Helvetica;-inkscape-font-specification:Helvetica-Bold;writing-mode:lr-tb;fill:#000000;fill-opacity:1;fill-rule:nonzero;stroke:none;"
       id="text372"><tspan
         x="0 8.1689997 19.844999 26.837999 38.514 46.682999 58.359001 71.190002 82.865997 94.542 100.38 112.056 117.894 130.72501 143.556 155.23199 162.22501 175.056 183.22501 194.901"
         y="0"
         sodipodi:role="line"
         id="tspan348">reference signature </tspan><tspan
         x="0 11.676 23.351999 35.028 40.866001 46.703999 58.380001 71.210999 77.049004"
         y="25.200001"
         sodipodi:role="line"
         id="tspan350">available</tspan><tspan
         x="1.008 13.839 26.67 45.339001 57.014999 69.846001 75.683998 81.522003 89.691002 101.367 108.36 114.198"
         y="-145.97099"
         sodipodi:role="line"
         id="tspan352">human, rat, </tspan><tspan
         x="1.008 19.677 32.507999 45.339001 57.014999"
         y="-120.771"
         sodipodi:role="line"
         id="tspan354">mouse</tspan><tspan
         sodipodi:role="line"
         id="tspan356"
         y="-214.95599"
         x="2.352 9.3450003 15.183 26.858999 38.535 51.366001 63.042 68.879997 87.549004 99.224998 112.056 124.887 136.563 149.394">tissue mapped </tspan><tspan
         sodipodi:role="line"
         id="tspan358"
         y="-189.756"
         x="2.352 9.3450003 22.176001 28.014 43.175999 57.182999">to CV </tspan><tspan
         sodipodi:role="line"
         id="tspan360"
         y="-286.608"
         x="1.6799999 13.356 19.194 32.025002 44.855999 50.694 62.369999">single-</tspan><tspan
         sodipodi:role="line"
         id="tspan362"
         y="-261.40799"
         x="1.6799999 13.356 26.187 37.862999 50.694 63.525002 75.200996 81.039001 86.876999 98.553001 106.722 114.891 126.567">channel array</tspan><tspan
         sodipodi:role="line"
         id="tspan364"
         y="-358.26001"
         x="1.008 13.839 25.514999 38.346001 50.021999">gene </tspan><tspan
         sodipodi:role="line"
         id="tspan366"
         y="-333.06"
         x="1.008 12.684 24.360001 43.028999 55.860001 68.691002 74.528999">symbols</tspan><tspan
         sodipodi:role="line"
         id="tspan368"
         y="-429.91199"
         x="1.008 8.0010004 13.839 25.514999 37.191002 50.021999">tissue</tspan><tspan
         sodipodi:role="line"
         id="tspan370"
         y="-404.71201"
         x="1.008 11.802 23.750999 35.700001 47.648998 53.759998 64.554001 70.665001 81.459">annotated</tspan></text><text
       transform="matrix(1,0,0,-1,228.2305,537.1338)"
       style="font-variant:normal;font-weight:bold;font-stretch:normal;font-size:24px;font-family:Helvetica;-inkscape-font-specification:Helvetica-Bold;writing-mode:lr-tb;fill:#231f20;fill-opacity:1;fill-rule:nonzero;stroke:none"
       id="text376"><tspan
         x="0 13.344 20.016001 33.360001 46.703999 60.048 66.720001 80.064003 93.407997"
         y="0"
         sodipodi:role="line"
         id="tspan374">1,956,417</tspan></text><text
       transform="matrix(1,0,0,-1,270.7695,509.1338)"
       style="font-variant:normal;font-weight:normal;font-stretch:normal;font-size:21px;font-family:Helvetica;-inkscape-font-specification:Helvetica;writing-mode:lr-tb;fill:#231f20;fill-opacity:1;fill-rule:nonzero;stroke:none"
       id="text380"><tspan
         x="0 11.676 23.351999 29.190001 40.866001 52.542"
         y="0"
         sodipodi:role="line"
         id="tspan378">73,719</tspan></text><text
       transform="matrix(1,0,0,-1,340.9209,536.4668)"
       style="font-variant:normal;font-weight:bold;font-stretch:normal;font-size:24px;font-family:Helvetica;-inkscape-font-specification:Helvetica-Bold;writing-mode:lr-tb;fill:#231f20;fill-opacity:1;fill-rule:nonzero;stroke:none"
       id="text384"><tspan
         x="0 13.344 26.688 48.023998 62.688 69.360001 82.704002"
         y="0"
         sodipodi:role="line"
         id="tspan382">samples</tspan></text><text
       transform="matrix(1,0,0,-1,340.9209,508.4668)"
       style="font-variant:normal;font-weight:normal;font-stretch:normal;font-size:21px;font-family:Helvetica;-inkscape-font-specification:Helvetica;writing-mode:lr-tb;fill:#231f20;fill-opacity:1;fill-rule:nonzero;stroke:none"
       id="text388"><tspan
         x="0 10.5 16.337999 28.014 39.689999 44.352001 56.028"
         y="0"
         sodipodi:role="line"
         id="tspan386">studies</tspan></text><text
       transform="matrix(1,0,0,-1,248.2461,470.7998)"
       style="font-variant:normal;font-weight:bold;font-stretch:normal;font-size:24px;font-family:Helvetica;-inkscape-font-specification:Helvetica-Bold;writing-mode:lr-tb;fill:#231f20;fill-opacity:1;fill-rule:nonzero;stroke:none"
       id="text392"><tspan
         x="0 13.344 26.688 40.032001 46.703999 60.048 73.391998"
         y="0"
         sodipodi:role="line"
         id="tspan390">760,798</tspan></text><text
       transform="matrix(1,0,0,-1,270.7695,442.7998)"
       style="font-variant:normal;font-weight:normal;font-stretch:normal;font-size:21px;font-family:Helvetica;-inkscape-font-specification:Helvetica;writing-mode:lr-tb;fill:#231f20;fill-opacity:1;fill-rule:nonzero;stroke:none"
       id="text396"><tspan
         x="0 11.676 23.351999 29.190001 40.866001 52.542"
         y="0"
         sodipodi:role="line"
         id="tspan394">24,267</tspan></text><text
       transform="matrix(1,0,0,-1,248.2461,405.1338)"
       style="font-variant:normal;font-weight:bold;font-stretch:normal;font-size:24px;font-family:Helvetica;-inkscape-font-specification:Helvetica-Bold;writing-mode:lr-tb;fill:#231f20;fill-opacity:1;fill-rule:nonzero;stroke:none"
       id="text400"><tspan
         x="0 13.344 26.688 40.032001 46.703999 60.048 73.391998"
         y="0"
         sodipodi:role="line"
         id="tspan398">253,210</tspan></text><text
       transform="matrix(1,0,0,-1,282.4487,377.1338)"
       style="font-variant:normal;font-weight:normal;font-stretch:normal;font-size:21px;font-family:Helvetica;-inkscape-font-specification:Helvetica;writing-mode:lr-tb;fill:#231f20;fill-opacity:1;fill-rule:nonzero;stroke:none"
       id="text404"><tspan
         x="0 11.676 17.514 29.190001 40.866001"
         y="0"
         sodipodi:role="line"
         id="tspan402">8,083</tspan></text><text
       transform="matrix(1,0,0,-1,248.2461,339.4668)"
       style="font-variant:normal;font-weight:bold;font-stretch:normal;font-size:24px;font-family:Helvetica;-inkscape-font-specification:Helvetica-Bold;writing-mode:lr-tb;fill:#231f20;fill-opacity:1;fill-rule:nonzero;stroke:none"
       id="text408"><tspan
         x="0 13.344 26.688 40.032001 46.703999 60.048 73.391998"
         y="0"
         sodipodi:role="line"
         id="tspan406">235,237</tspan></text><text
       transform="matrix(1,0,0,-1,282.4487,311.4668)"
       style="font-variant:normal;font-weight:normal;font-stretch:normal;font-size:21px;font-family:Helvetica;-inkscape-font-specification:Helvetica;writing-mode:lr-tb;fill:#231f20;fill-opacity:1;fill-rule:nonzero;stroke:none"
       id="text412"><tspan
         x="0 11.676 17.514 29.190001 40.866001"
         y="0"
         sodipodi:role="line"
         id="tspan410">7,561</tspan></text><text
       transform="matrix(1,0,0,-1,248.2461,273.7998)"
       style="font-variant:normal;font-weight:bold;font-stretch:normal;font-size:24px;font-family:Helvetica;-inkscape-font-specification:Helvetica-Bold;writing-mode:lr-tb;fill:#231f20;fill-opacity:1;fill-rule:nonzero;stroke:none"
       id="text416"><tspan
         x="0 13.344 26.688 40.032001 46.703999 60.048 73.391998"
         y="0"
         sodipodi:role="line"
         id="tspan414">136,230</tspan></text><text
       transform="matrix(1,0,0,-1,282.4487,245.7998)"
       style="font-variant:normal;font-weight:normal;font-stretch:normal;font-size:21px;font-family:Helvetica;-inkscape-font-specification:Helvetica;writing-mode:lr-tb;fill:#231f20;fill-opacity:1;fill-rule:nonzero;stroke:none"
       id="text420"><tspan
         x="0 11.676 17.514 29.190001 40.866001"
         y="0"
         sodipodi:role="line"
         id="tspan418">3,800</tspan></text><text
       transform="matrix(1,0,0,-1,248.2461,208.1338)"
       style="font-variant:normal;font-weight:bold;font-stretch:normal;font-size:24px;font-family:Helvetica;-inkscape-font-specification:Helvetica-Bold;writing-mode:lr-tb;fill:#231f20;fill-opacity:1;fill-rule:nonzero;stroke:none"
       id="text424"><tspan
         x="0 13.344 26.688 40.032001 46.703999 60.048 73.391998"
         y="0"
         sodipodi:role="line"
         id="tspan422">134,334</tspan></text><text
       transform="matrix(1,0,0,-1,282.4487,180.1338)"
       style="font-variant:normal;font-weight:normal;font-stretch:normal;font-size:21px;font-family:Helvetica;-inkscape-font-specification:Helvetica;writing-mode:lr-tb;fill:#231f20;fill-opacity:1;fill-rule:nonzero;stroke:none"
       id="text428"><tspan
         x="0 11.676 17.514 29.190001 40.866001"
         y="0"
         sodipodi:role="line"
         id="tspan426">3,757</tspan></text><text
       transform="matrix(1,0,0,-1,261.5937,142.4668)"
       style="font-variant:normal;font-weight:bold;font-stretch:normal;font-size:24px;font-family:Helvetica;-inkscape-font-specification:Helvetica-Bold;writing-mode:lr-tb;fill:#231f20;fill-opacity:1;fill-rule:nonzero;stroke:none"
       id="text432"><tspan
         x="0 13.344 26.688 33.360001 46.703999 60.048"
         y="0"
         sodipodi:role="line"
         id="tspan430">81,845</tspan></text><text
       transform="matrix(1,0,0,-1,282.4487,114.4668)"
       style="font-variant:normal;font-weight:normal;font-stretch:normal;font-size:21px;font-family:Helvetica;-inkscape-font-specification:Helvetica;writing-mode:lr-tb;fill:#231f20;fill-opacity:1;fill-rule:nonzero;stroke:none"
       id="text436"><tspan
         x="0 11.676 17.514 29.190001 40.866001"
         y="0"
         sodipodi:role="line"
         id="tspan434">2,926</tspan></text><text
       transform="matrix(1,0,0,-1,261.5937,42.4668)"
       style="font-variant:normal;font-weight:bold;font-stretch:normal;font-size:24px;font-family:Helvetica;-inkscape-font-specification:Helvetica-Bold;writing-mode:lr-tb;fill:#231f20;fill-opacity:1;fill-rule:nonzero;stroke:none"
       id="text440"><tspan
         x="0 13.344 26.688 33.360001 46.703999 60.048 73.391998"
         y="0"
         sodipodi:role="line"
         id="tspan438">51,948 </tspan></text><text
       transform="matrix(1,0,0,-1,282.4487,14.4668)"
       style="font-variant:normal;font-weight:normal;font-stretch:normal;font-size:21px;font-family:Helvetica;-inkscape-font-specification:Helvetica;writing-mode:lr-tb;fill:#231f20;fill-opacity:1;fill-rule:nonzero;stroke:none"
       id="text444"><tspan
         x="0 11.676 17.514 29.190001 40.866001 52.542"
         y="0"
         sodipodi:role="line"
         id="tspan442">1,760 </tspan></text><text
       transform="matrix(1,0,0,-1,9.0077,113.2508)"
       style="font-variant:normal;font-weight:bold;font-stretch:normal;font-size:21px;font-family:Helvetica;-inkscape-font-specification:Helvetica-Bold;writing-mode:lr-tb;fill:#000000;fill-opacity:1;fill-rule:nonzero;stroke:none;"
       id="text448"><tspan
         x="0 12.831 25.662001 37.338001 43.175999 49.014 56.007 67.682999 73.521004 85.196999 98.028 110.859 117.852 126.021 138.85201"
         y="0"
         sodipodi:role="line"
         id="tspan446"
         style="fill:#000000;fill-opacity:1;">quality control</tspan></text><g
       id="g450"><g
         id="g452"
         clip-path="url(#clipPath456)"><g
           id="g458"
           transform="translate(209.5498,172.1205)"><path
             d="m 0,0 h -0.85 l -26.3,-26.301 -2.71,-2 h -177.19"
             style="fill:none;stroke:#ffffff;stroke-width:3;stroke-linecap:butt;stroke-linejoin:miter;stroke-miterlimit:10;stroke-dasharray:none;stroke-opacity:1"
             id="path460" /></g></g></g><text
       transform="matrix(1,0,0,-1,9.1021,543.1831)"
       style="font-variant:normal;font-weight:bold;font-stretch:normal;font-size:21px;font-family:Helvetica;-inkscape-font-specification:Helvetica-Bold;writing-mode:lr-tb;fill:#000000;fill-opacity:1;fill-rule:nonzero;stroke:none;"
       id="text464"><tspan
         x="0 6.993 19.823999 26.816999 38.493"
         y="0"
         sodipodi:role="line"
         id="tspan462">total</tspan></text><text
       xml:space="preserve"
       id="text1408"
       style="font-family:'Helvetica Neue LT Std';font-size:15.999988px;line-height:1.25;letter-spacing:0px;word-spacing:0px;-inkscape-font-specification:'Helvetica Neue LT Std, Normal';white-space:pre;shape-inside:url(#rect1410);" /><text
       xml:space="preserve"
       id="text1414"
       style="font-family:'Helvetica Neue LT Std';font-size:15.999988px;line-height:1.25;letter-spacing:0px;word-spacing:0px;-inkscape-font-specification:'Helvetica Neue LT Std, Normal';white-space:pre;shape-inside:url(#rect1416);" /></g></svg>
